<?xml version="1.0" standalone="no"?><!DOCTYPE svg PUBLIC "-//W3C//DTD SVG 1.1//EN" "http://www.w3.org/Graphics/SVG/1.1/DTD/svg11.dtd"><svg t="1731338440519" class="icon" viewBox="0 0 1024 1024" version="1.1" xmlns="http://www.w3.org/2000/svg" p-id="2333" xmlns:xlink="http://www.w3.org/1999/xlink" width="200" height="200"><path d="M243.562726 666.083634c63.913637-102.261819 262.04591-198.132274 466.569548-102.261818s268.437274 31.956818 268.437274 31.956818l-63.913637-536.874548c-31.956818 63.913637-134.218637 70.305-300.394092 0S371.389999-11.400915 307.476363 20.555904c-63.913637 31.956818-198.132274 134.218637-198.132274 134.218637z" fill="#CB2626" p-id="2334"></path><path d="M96.561361 103.643632l166.175456 869.225459" fill="#A1A1A1" p-id="2335"></path><path d="M269.128181 1024c25.565455-6.391364 44.739546-31.956818 38.348182-57.522273L141.300907 97.252268c-6.391364-25.565455-31.956818-44.739546-57.522273-38.348182-25.565455 6.391364-44.739546 31.956818-38.348182 57.522273l166.175456 869.225459c6.391364 19.174091 25.565455 38.348182 51.130909 38.348182h6.391364z" fill="#999999" p-id="2336"></path></svg>